<?xml version="1.0" encoding="UTF-8"?>
<!DOCTYPE svg PUBLIC "-//W3C//DTD SVG 1.1//EN" "http://www.w3.org/Graphics/SVG/1.1/DTD/svg11.dtd">
<!-- Creator: CorelDRAW 2021.5 -->
<svg xmlns="http://www.w3.org/2000/svg" xml:space="preserve" width="65.8137mm" height="15.1218mm" version="1.1" style="shape-rendering:geometricPrecision; text-rendering:geometricPrecision; image-rendering:optimizeQuality; fill-rule:evenodd; clip-rule:evenodd"
viewBox="0 0 4367.93 1003.61"
 xmlns:xlink="http://www.w3.org/1999/xlink"
 xmlns:xodm="http://www.corel.com/coreldraw/odm/2003">
 <defs>
  <style type="text/css">
   <![CDATA[
    .str0 {stroke:#D2D3D5;stroke-width:13.27;stroke-miterlimit:22.9256}
    .fil7 {fill:none}
    .fil2 {fill:#FEFEFE}
    .fil3 {fill:#373435}
    .fil1 {fill:#F58634}
    .fil0 {fill:#ED3237}
    .fil4 {fill:#282829}
    .fil6 {fill:#E6E7E8;fill-rule:nonzero}
    .fil5 {fill:#373435;fill-rule:nonzero}
   ]]>
  </style>
 </defs>
 <g id="Camada_x0020_1">
  <metadata id="CorelCorpID_0Corel-Layer"/>
  <g id="_1658802028144">
   <polygon class="fil0" points="423.85,227.3 505.15,212.86 631.68,182.12 967.79,158.63 1081.65,151.41 1112.37,225.5 1139.5,529.11 1153.94,711.65 931.66,711.65 517.81,745.98 275.65,787.54 194.33,798.39 214.2,684.53 216.01,527.32 223.22,440.58 244.92,319.48 "/>
   <polygon class="fil1" points="333.49,776.69 720.23,722.48 917.19,717.07 864.8,539.96 790.71,321.27 687.69,420.66 562.99,545.35 420.23,588.77 "/>
   <path class="fil2" d="M302.75 73.69l131.93 140.95 121.09 160.85 41.56 41.55 54.2 5.44 54.21 34.33 65.07 37.94 -28.91 23.5 -97.58 37.97 -99.39 30.71 -81.33 0 -101.18 -41.57 -112.06 -86.72 -88.57 -72.29 -43.36 -50.61 3.62 -21.69 99.38 -75.91 47 0c0,0 14.45,-5.42 18.07,-21.68 3.61,-16.27 -10.82,-36.14 -10.82,-36.14l-1.84 -23.51 27.13 -1.79 -10.86 -54.22 -3.61 -21.69 16.27 -5.42z"/>
   <polygon class="fil2" points="718.43,115.24 792.5,324.89 808.75,370.08 784.31,389.24 765.41,424.29 745.88,478.51 673.23,440.57 604.56,413.45 555.78,375.49 541.31,355.61 638.9,205.62 694.92,120.7 "/>
   <path class="fil2" d="M802.07 363.71l5.08 -58.2 8.83 -37.96 10.14 -19.01 13.91 10.14c0,0 6.36,26.59 6.36,32.89 0,6.34 41.71,1.27 41.71,1.27l34.19 6.32 -15.2 20.24 -48.06 21.52 -39.22 21.51 -17.74 1.27z"/>
   <path class="fil3" d="M76.11 433.4c0,0 -0.84,-12.65 21.86,-12.65 22.72,0 94.22,3.37 94.22,3.37l45.42 40.48 -70.51 -3.32 -69.14 7.49c0,0 -17.66,0 -21.03,-13.46 -3.36,-13.49 -0.84,-21.92 -0.84,-21.92z"/>
   <path class="fil3" d="M13.19 288.26c-9.76,7.33 -15.22,27.34 -12.48,49.24 4.78,38.11 12.07,25.33 37.63,20.67 37.32,-6.76 96.52,12.68 92.45,5.26l-17.68 -32.01c0,0 -23.55,-5.08 -46.28,-17.71 -9.55,-5.3 -43.91,-32.76 -53.64,-25.45zm6.55 28.84l26.91 16 -22.72 10.94c0,0 -15.97,-22.75 -4.19,-26.95z"/>
   <path class="fil3" d="M208.99 498.43c0,0 12.69,-17.53 14.63,-2.91 1.94,14.63 0,166.8 0,166.8 0,0 -4.52,61.44 -10.38,81.9 -5.85,20.51 -17.91,74.14 -17.91,74.14 0,0 -11.71,26.34 -13.65,3.89 -1.94,-22.43 16.57,-70.22 17.56,-113.12 0.98,-42.91 6.82,-171.69 6.82,-171.69l2.92 -39.01z"/>
   <path class="fil3" d="M118.99 811.91c0,0 -3.31,19.8 15.36,15.4 18.68,-4.41 109.87,-25.32 164.8,-36.34 54.95,-10.98 353.76,-49.71 453.71,-55.22 99.99,-5.5 388.92,-9.7 413.11,-9.7 24.18,0 37.33,3.3 37.33,3.3l0 -20.92c0,0 -201.05,-7.7 -277.95,-5.5 -76.88,2.21 -286.72,23.12 -286.72,23.12 0,0 -303.22,31.92 -370.24,44.04 -67.01,12.11 -149.4,41.82 -149.4,41.82z"/>
   <path class="fil3" d="M480.08 192.37c0,0 -17.87,13.41 -10.71,22.34 7.16,8.93 2.67,8.93 63.42,-5.36 60.75,-14.32 225.12,-30.38 278.75,-32.16 53.57,-1.79 234.03,-15.2 234.03,-15.2 0,0 47.35,-10.73 50.92,51.81 3.58,62.55 44.69,444.02 44.69,444.02l7.14 86.64 16.96 2.69c0,0 -8.93,-156.32 -9.83,-212.61 -0.9,-56.28 -30.89,-320.73 -33.95,-335.92 -3.07,-15.19 -6.19,-59.84 -39.32,-59.84 -43.78,0 -276.03,14.28 -276.03,14.28 0,0 -147.39,14.32 -186.73,21.46 -46.36,8.44 -93.65,6.89 -139.36,17.86z"/>
   <path class="fil3" d="M807.06 401.28c-21.21,-87.68 -53.45,-177.79 -88.32,-268.97 -6.22,-16.22 -17.99,-4.26 -17.99,-4.26 -50.45,66.87 -88.59,134.59 -129.36,198.02 -15.69,24.46 -60.62,103.8 -67.85,115.1 -7.25,11.33 -47.94,89.31 -61.52,114.23 -13.57,24.91 -53.81,114.64 -66.47,140.47 -12.67,25.83 -48.86,117.81 -48.86,117.81 0,0 -44.33,104.7 -61.07,128.25 -16.74,23.55 -21.71,-10.88 -21.71,-10.88l24.63 -36.56c0,0 32.47,-67.66 40.6,-82.54 8.11,-14.9 63.61,-143.45 63.61,-143.45 0,0 97.4,-200.27 110.95,-228.69 13.51,-28.41 94.71,-155.62 94.71,-155.62 0,0 79.84,-120.46 105.55,-163.74 25.7,-43.31 43.31,-9.48 43.31,-9.48l40.61 106.91 97.42 299.05 78.47 257.1 41.96 136.71 -23 -9.5 -5.4 -20.28c0,0 -14.89,-41.95 -28.42,-87.97 -13.53,-46.01 -121.87,-391.71 -121.87,-391.71z"/>
   <path class="fil3" d="M318.74 64.54c-15.81,-16.53 -54.31,1.48 -43.94,42.93 7.02,12.05 33.25,45.45 -9.07,29.39 -19.97,-7.6 -11.63,36.73 -8.06,43.68 10.95,21.28 18.51,31.37 9.23,32 -0.72,0.04 -8.12,3.55 -16.61,4.96 -14.19,2.34 -24.6,9.78 -34.03,17.73 -30.58,25.76 -71.33,53.81 -96.45,84.55 -10.02,12.23 -17.37,22.83 -5.11,35.26l62.08 62.72c41.31,41.76 81.49,72.65 130.16,106.19 50.81,35.04 92.32,55.26 112.18,64.38 38.56,17.73 114.26,4.06 153.53,-1.62 30.65,-4.42 89.74,-21.44 122.44,-41.18 29.31,-17.7 62.01,-23.46 88.91,-33.29 13.98,-5.12 18.11,-15.73 2.79,-21.59l-66.54 -25.48c0,0 -47.94,-44.09 -56.88,-48.35 -54.65,-25.99 -52.68,17.9 -118.65,-72.35 -55.9,-76.47 -110.06,-150.16 -169.64,-222.73 -15.17,-18.46 -38.6,-38.61 -56.35,-57.19zm402.28 420.92l37.58 14.53c0,0 -20.04,6.36 -40.94,13.69 0.46,-8.5 2.37,-21.76 3.35,-28.21zm-421.98 -399.6c6.05,0 48.49,49.1 75.18,80.66 26.67,31.52 100.02,121.26 100.02,121.26l61.25 83.05c16.33,15.95 47.26,52.8 68.15,52.8 23.06,0 32.84,2.17 40.72,5.81 7.88,3.64 52.98,46.88 52.98,46.88l12 4.64c-2.04,12.58 -2.76,24.72 -2.17,36.44 -42.67,24.78 -92.1,47.27 -141.98,52.9 -34.68,3.9 -85.97,8.97 -127.92,1.81 -41.97,-7.14 -183.4,-128.22 -189.18,-133.39l-111.56 -99.43c0,0 -13.05,-8.75 -3.62,-16.98 30.66,-26.85 61.56,-52.8 92.16,-74.57 0,0 10.92,-6.66 18.78,2.44 7.9,9.09 53.95,59.41 53.95,59.41 0,0 8.49,6.06 1.25,13.35 -7.29,7.27 -17.51,25.35 -6.58,45.37 23.09,42.35 78.39,97.64 130.1,131.75 18.7,12.34 30.62,28.23 49.27,30.83 0,0 13.65,-14.26 3.82,-21.56 -9.86,-7.29 -80.09,-55.56 -106.76,-85.28 -26.69,-29.73 -54.71,-50.82 -54.71,-67.18 0,-16.36 3.04,-20.62 9.09,-25.45 6.07,-4.86 35.17,-4.86 3.64,-30.92 -31.52,-26.08 -41.83,-51.54 -41.83,-51.54 0,0 -6.68,-10.9 2.41,-11.53 9.1,-0.6 21.82,-6.07 16.98,-23.02 -4.83,-16.98 -24.86,-32.75 -23.02,-39.42 1.8,-6.65 1.19,-16.36 12.72,-12.11 11.51,4.25 20.6,7.25 20.6,-4.25 0,-11.51 -5.46,-35.77 -10.91,-44.88 -5.46,-9.07 -10.91,-27.89 -4.83,-27.89z"/>
   <path class="fil3" d="M255 866.07l5.44 -20.29c0,0 87.94,-17.59 189.43,-33.83 101.51,-16.26 175.93,-23.01 250.36,-33.83 74.4,-10.83 342.37,-25.73 342.37,-25.73l6.77 24.38c0,0 -70.35,4.04 -182.72,9.44 -112.29,5.42 -221.72,30.01 -297.69,33.84 -107.05,5.4 -206.06,34.24 -313.95,46.01z"/>
   <path class="fil3" d="M718.43 590.56c0,-45.2 23.47,-131.91 34.34,-160.86 10.82,-28.88 39.73,-57.83 39.73,-57.83 0,0 -2.42,-75.88 12.67,-117.45 10.36,-28.58 29.55,-18.08 40.5,-7.98 12.72,11.69 8.27,24.07 8.27,40.5 0,0 37.98,-7.23 65.09,-3.61 27.36,3.62 7.11,32.59 -5.53,39.42 -25.07,13.55 -51.74,25.06 -77.6,36.47 -61.46,27.11 -57.85,61.45 -74.11,92.18 -16.25,30.74 -21.71,139.15 -21.71,139.15l-21.64 0zm90.32 -231.33c0,0 48.81,-30.72 70.5,-36.14 21.7,-5.43 36.15,-25.31 10.83,-23.49 -25.28,1.81 -52.37,10.85 -52.37,10.85l0 -32.54c0,0 -10.86,-48.79 -21.73,7.22 -10.82,56.03 -7.23,74.1 -7.23,74.1z"/>
   <polygon class="fil4" points="646.13,236.35 646.13,258.04 678.65,258.04 678.65,368.28 698.5,368.28 698.5,258.04 725.86,258.04 725.86,236.35 698.5,236.35 698.5,199.6 678.65,199.6 678.65,236.35 "/>
   <path class="fil5" d="M653.27 243.49l0 7.41 25.38 0c3.94,0 7.14,3.2 7.14,7.14l0 0.18 0 102.92 5.57 0 0 -103.1c0,-3.94 3.2,-7.14 7.14,-7.14l0.19 0 20.02 0 0 -7.41 -20.21 0c-3.94,0 -7.14,-3.2 -7.14,-7.14l0 -0.18 0 -29.43 -5.57 0 0 29.61c0,3.94 -3.2,7.14 -7.14,7.14l-0.18 0 -25.2 0zm-14.28 14.55l0 -21.51 0 -0.19c0,-3.94 3.21,-7.13 7.14,-7.13l25.38 0 0 -29.42 0 -0.19c0,-3.94 3.2,-7.14 7.13,-7.14l19.67 0 0.19 0c3.94,0 7.13,3.21 7.13,7.14l0 29.61 20.03 0 0.19 0c3.94,0 7.13,3.2 7.13,7.13l0 21.51 0 0.19c0,3.94 -3.19,7.14 -7.13,7.14l-20.22 0 0 102.9 0 0.19c0,3.94 -3.2,7.14 -7.13,7.14l-19.67 0 -0.19 0c-3.94,0 -7.13,-3.21 -7.13,-7.14l0 -103.1 -25.19 0 -0.19 0c-3.94,0 -7.14,-3.21 -7.14,-7.14z"/>
   <polygon class="fil3" points="646.13,236.35 646.13,258.04 678.65,258.04 678.65,368.28 698.5,368.28 698.5,258.04 725.86,258.04 725.86,236.35 698.5,236.35 698.5,199.6 678.65,199.6 678.65,236.35 "/>
   <path class="fil4" d="M650.58 507.16c7.76,4.43 13.77,0.9 18.68,-4.08 6.78,-6.9 11.89,-19.31 0.87,-25.62 -4.94,-2.85 -10.93,-0.16 -17,6.19 -7.77,8.16 -10.76,18.8 -2.56,23.52z"/>
   <path class="fil3" d="M650.58 507.16c7.76,4.43 13.77,0.9 18.68,-4.08 6.78,-6.9 11.89,-19.31 0.87,-25.62 -4.94,-2.85 -10.93,-0.16 -17,6.19 -7.77,8.16 -10.76,18.8 -2.56,23.52z"/>
   <path class="fil3" d="M375.57 988.36l9.52 15.24c0,0 47.69,-20.95 108.7,-51.5 61.02,-30.5 184.95,-87.69 184.95,-87.69 0,0 95.33,-38.14 198.31,1.89 102.97,40.06 101.06,47.69 167.81,55.3 66.74,7.65 175.42,0 175.42,0l13.33 -26.69 -183.06 1.91c0,0 -85.81,-15.24 -125.84,-40.03 -40.05,-24.81 -163.98,-47.68 -226.89,-20.99 -62.93,26.69 -322.26,152.55 -322.26,152.55z"/>
   <path class="fil6" d="M1845.02 214.28c0,8.01 -1.26,15.63 -3.83,22.89 -2.53,7.22 -6.2,13.3 -10.97,18.16 -2.92,3 -6.16,5.76 -9.67,8.32 -3.52,2.53 -7.38,4.7 -11.61,6.48 -4.26,1.73 -8.84,3.16 -13.81,4.14 -4.98,0.99 -10.54,1.5 -16.74,1.5l-22.66 0 0 56.37 -43.34 0 0 -172.17 66.91 0c9.95,0 18.51,0.91 25.73,2.73 7.23,1.81 13.74,4.65 19.62,8.6 6.48,4.3 11.49,10.07 15.04,17.29 3.55,7.18 5.33,15.75 5.33,25.7zm-44.52 1.06c0,-4.85 -1.15,-9 -3.48,-12.51 -2.29,-3.48 -5.05,-5.88 -8.29,-7.19 -4.06,-1.77 -7.97,-2.8 -11.72,-3.07 -3.71,-0.28 -8.76,-0.4 -15.16,-0.4l-6.12 0 0 51.39 3 0c4.07,0 7.94,-0.04 11.53,-0.12 3.63,-0.07 6.79,-0.35 9.47,-0.78 2.29,-0.4 4.74,-1.15 7.35,-2.25 2.56,-1.15 4.53,-2.37 5.92,-3.75 2.92,-2.85 4.89,-5.81 5.96,-8.89 1.02,-3.07 1.54,-7.22 1.54,-12.43z"/>
   <path id="_1" class="fil6" d="M1853.44 332.13l58.22 -172.17 47.21 0 58.22 172.17 -44.49 0 -10.69 -34.82 -54.55 0 -10.66 34.82 -43.26 0zm98.91 -66.31l-17.72 -57.12 -17.72 57.12 35.44 0z"/>
   <path id="_2" class="fil6" d="M2197.03 332.13l-52.81 0 -47.92 -63.24 -15.32 0 0 63.24 -43.1 0 0 -172.17 69.27 0c9.55,0 17.88,0.59 24.99,1.78 7.1,1.22 13.66,3.71 19.65,7.46 6.16,3.95 11.06,8.92 14.69,14.96 3.63,6.04 5.45,13.73 5.45,23.05 0,13.18 -2.96,23.84 -8.93,32.05 -5.96,8.21 -13.89,14.72 -23.88,19.58l57.91 73.3zm-69.63 -119.6c0,-4.34 -0.83,-8.05 -2.49,-11.17 -1.65,-3.12 -4.38,-5.57 -8.21,-7.26 -2.68,-1.15 -5.68,-1.86 -8.99,-2.18 -3.32,-0.31 -7.43,-0.47 -12.32,-0.47l-14.41 0 0 46.42 12.32 0c6,0 11.09,-0.36 15.27,-1.11 4.19,-0.71 7.74,-2.29 10.66,-4.69 2.76,-2.13 4.82,-4.74 6.16,-7.74 1.34,-3 2.01,-6.95 2.01,-11.8z"/>
   <path id="_3" class="fil6" d="M2370.47 246.09c0,27.83 -7.42,49.73 -22.3,65.68 -14.88,15.95 -35.25,23.92 -61.1,23.92 -25.97,0 -46.34,-8.09 -61.14,-24.24 -14.81,-16.14 -22.19,-37.93 -22.19,-65.36 0,-27.63 7.38,-49.5 22.19,-65.56 14.8,-16.07 35.17,-24.12 61.14,-24.12 25.85,0 46.22,8.01 61.1,24 14.88,15.98 22.3,37.89 22.3,65.68zm-44.52 -0.12c0,-10.22 -1.07,-18.99 -3.2,-26.17 -2.09,-7.22 -4.93,-13.14 -8.49,-17.76 -3.71,-4.7 -7.89,-8.09 -12.55,-10.11 -4.7,-2.05 -9.51,-3.07 -14.52,-3.07 -5.33,0 -10.19,0.94 -14.49,2.84 -4.34,1.89 -8.49,5.25 -12.51,10.1 -3.56,4.46 -6.44,10.42 -8.61,17.8 -2.21,7.42 -3.31,16.27 -3.31,26.49 0,10.58 1.02,19.34 3.12,26.33 2.09,6.98 4.93,12.83 8.56,17.52 3.71,4.78 7.93,8.21 12.63,10.23 4.7,2.05 9.55,3.07 14.61,3.07 5.09,0 10.02,-1.1 14.8,-3.31 4.77,-2.17 8.92,-5.61 12.39,-10.22 3.71,-5.02 6.55,-10.86 8.57,-17.53 2.01,-6.67 3,-15.39 3,-26.21zm-2.84 -150.66l-34.74 45.47 -27.55 0 23.96 -45.47 38.33 0z"/>
   <path id="_4" class="fil6" d="M2556.46 377.56c-4.61,1.14 -9.27,2.01 -13.93,2.57 -4.66,0.51 -11.96,0.78 -21.91,0.78 -9.07,0 -16.81,-1.14 -23.17,-3.39 -6.35,-2.29 -11.68,-5.49 -15.9,-9.63 -4.23,-4.11 -7.42,-8.96 -9.55,-14.57 -2.1,-5.6 -3.32,-11.64 -3.64,-18.11 -24.31,-1.07 -43.45,-9.52 -57.43,-25.31 -13.97,-15.78 -20.96,-37.06 -20.96,-63.82 0,-27.67 7.38,-49.5 22.19,-65.56 14.8,-16.07 35.17,-24.12 61.14,-24.12 25.85,0 46.22,8.01 61.1,24 14.88,15.98 22.3,37.89 22.3,65.68 0,20.29 -4.22,37.66 -12.67,52.18 -8.41,14.53 -20.37,24.83 -35.88,30.95 0.16,8.36 2.01,14.13 5.61,17.32 3.59,3.2 9.9,4.78 18.94,4.78 3.48,0 7.19,-0.51 11.09,-1.54 3.87,-1.06 6.67,-2.05 8.37,-2.96l4.3 0 0 30.75zm-55.85 -87.86c3.71,-5.02 6.55,-10.86 8.57,-17.53 2.01,-6.67 3,-15.39 3,-26.21 0,-10.22 -1.07,-18.99 -3.2,-26.17 -2.09,-7.22 -4.93,-13.14 -8.49,-17.76 -3.71,-4.7 -7.89,-8.09 -12.55,-10.11 -4.7,-2.05 -9.51,-3.07 -14.52,-3.07 -5.33,0 -10.19,0.94 -14.49,2.84 -4.34,1.89 -8.49,5.25 -12.51,10.1 -3.56,4.46 -6.44,10.42 -8.61,17.8 -2.21,7.42 -3.31,16.27 -3.31,26.49 0,10.58 1.02,19.34 3.12,26.33 2.09,6.98 4.93,12.83 8.56,17.52 3.71,4.78 7.93,8.21 12.63,10.23 4.7,2.05 9.55,3.07 14.61,3.07 5.09,0 10.02,-1.1 14.8,-3.31 4.77,-2.17 8.92,-5.61 12.39,-10.22z"/>
   <path id="_5" class="fil6" d="M2655.86 335.68c-23.13,0 -40.94,-5.61 -53.41,-16.78 -12.43,-11.17 -18.67,-27.51 -18.67,-49.02l0 -109.93 43.34 0 0 107.32c0,11.96 2.25,20.84 6.75,26.72 4.5,5.84 11.8,8.76 21.99,8.76 9.9,0 17.17,-2.8 21.82,-8.45 4.66,-5.6 6.99,-14.64 6.99,-27.03l0 -107.32 43.34 0 0 109.81c0,21.2 -6.08,37.5 -18.23,48.87 -12.12,11.37 -30.12,17.05 -53.92,17.05z"/>
   <polygon id="_6" class="fil6" points="2850.97,332.13 2757.89,332.13 2757.89,302.05 2782.76,302.05 2782.76,190.04 2757.89,190.04 2757.89,159.96 2850.97,159.96 2850.97,190.04 2826.1,190.04 2826.1,302.05 2850.97,302.05 "/>
   <path id="_7" class="fil6" d="M2864.87 332.13l58.22 -172.17 47.21 0 58.22 172.17 -44.49 0 -10.69 -34.82 -54.55 0 -10.66 34.82 -43.26 0zm98.91 -66.31l-17.72 -57.12 -17.72 57.12 35.44 0z"/>
   <polygon id="_8" class="fil6" points="3289.55,332.13 3247.9,332.13 3181.32,212.1 3181.32,332.13 3141.77,332.13 3141.77,159.96 3194.9,159.96 3250,258.6 3250,159.96 3289.55,159.96 "/>
   <path id="_9" class="fil6" d="M3484.9 246.09c0,27.83 -7.42,49.73 -22.31,65.68 -14.88,15.95 -35.24,23.92 -61.1,23.92 -25.97,0 -46.34,-8.09 -61.14,-24.24 -14.8,-16.14 -22.18,-37.93 -22.18,-65.36 0,-27.63 7.38,-49.5 22.18,-65.56 14.8,-16.07 35.17,-24.12 61.14,-24.12 25.86,0 46.22,8.01 61.1,24 14.89,15.98 22.31,37.89 22.31,65.68zm-44.53 -0.12c0,-10.22 -1.06,-18.99 -3.2,-26.17 -2.09,-7.22 -4.93,-13.14 -8.48,-17.76 -3.71,-4.7 -7.9,-8.09 -12.55,-10.11 -4.7,-2.05 -9.52,-3.07 -14.53,-3.07 -5.33,0 -10.18,0.94 -14.49,2.84 -4.34,1.89 -8.48,5.25 -12.51,10.1 -3.55,4.46 -6.43,10.42 -8.6,17.8 -2.21,7.42 -3.32,16.27 -3.32,26.49 0,10.58 1.03,19.34 3.12,26.33 2.09,6.98 4.93,12.83 8.57,17.52 3.71,4.78 7.93,8.21 12.63,10.23 4.69,2.05 9.55,3.07 14.6,3.07 5.09,0 10.03,-1.1 14.8,-3.31 4.78,-2.17 8.92,-5.61 12.4,-10.22 3.71,-5.02 6.55,-10.86 8.56,-17.53 2.02,-6.67 3,-15.39 3,-26.21z"/>
   <path id="_10" class="fil6" d="M3567.59 335.21c-13.14,0 -24.71,-1.27 -34.69,-3.83 -9.99,-2.53 -19.23,-5.69 -27.79,-9.48l0 -40.93 3.91 0c8.64,7.3 18.11,12.91 28.49,16.86 10.39,3.9 20.45,5.88 30.24,5.88 2.45,0 5.68,-0.28 9.71,-0.79 4.07,-0.55 7.3,-1.38 9.75,-2.57 3,-1.3 5.56,-3.12 7.62,-5.44 2.09,-2.37 3.12,-5.45 3.12,-9.28 0,-4.3 -1.7,-7.82 -5.1,-10.54 -3.35,-2.68 -7.42,-4.66 -12.11,-5.88 -5.85,-1.54 -12.08,-3 -18.75,-4.38 -6.67,-1.38 -12.87,-3.08 -18.63,-5.09 -13.34,-4.7 -22.86,-11.02 -28.66,-18.95 -5.76,-7.93 -8.64,-17.88 -8.64,-29.84 0,-16.1 6.82,-29.13 20.44,-39.12 13.66,-9.98 30.67,-14.96 51.08,-14.96 10.26,0 20.44,1.03 30.59,3.12 10.1,2.09 19.18,4.9 27.19,8.45l0 39.35 -3.78 0c-6.4,-5.45 -14.17,-10.02 -23.37,-13.77 -9.2,-3.75 -18.63,-5.65 -28.34,-5.65 -3.75,0 -7.15,0.28 -10.15,0.79 -3,0.55 -6.15,1.58 -9.47,3.12 -2.68,1.18 -5.01,3 -6.95,5.41 -1.97,2.4 -2.96,5.09 -2.96,8.09 0,4.38 1.54,7.85 4.66,10.46 3.12,2.56 9.16,4.89 18.08,6.99 5.76,1.3 11.33,2.56 16.7,3.78 5.32,1.27 11.05,2.93 17.13,5.1 11.92,4.3 20.8,10.1 26.6,17.4 5.8,7.27 8.72,16.9 8.72,28.82 0,17.13 -6.71,30.86 -20.17,41.28 -13.42,10.39 -31.57,15.6 -54.47,15.6z"/>
   <path id="_11" class="fil6" d="M3721.45 335.21c-13.14,0 -24.71,-1.27 -34.69,-3.83 -9.99,-2.53 -19.23,-5.69 -27.79,-9.48l0 -40.93 3.91 0c8.64,7.3 18.11,12.91 28.49,16.86 10.39,3.9 20.45,5.88 30.24,5.88 2.45,0 5.68,-0.28 9.71,-0.79 4.07,-0.55 7.3,-1.38 9.75,-2.57 3,-1.3 5.56,-3.12 7.62,-5.44 2.09,-2.37 3.12,-5.45 3.12,-9.28 0,-4.3 -1.7,-7.82 -5.1,-10.54 -3.35,-2.68 -7.42,-4.66 -12.11,-5.88 -5.85,-1.54 -12.08,-3 -18.75,-4.38 -6.67,-1.38 -12.87,-3.08 -18.63,-5.09 -13.34,-4.7 -22.86,-11.02 -28.66,-18.95 -5.76,-7.93 -8.64,-17.88 -8.64,-29.84 0,-16.1 6.82,-29.13 20.44,-39.12 13.66,-9.98 30.67,-14.96 51.08,-14.96 10.26,0 20.44,1.03 30.59,3.12 10.1,2.09 19.18,4.9 27.19,8.45l0 39.35 -3.78 0c-6.4,-5.45 -14.17,-10.02 -23.37,-13.77 -9.2,-3.75 -18.63,-5.65 -28.34,-5.65 -3.75,0 -7.15,0.28 -10.15,0.79 -3,0.55 -6.15,1.58 -9.47,3.12 -2.68,1.18 -5.01,3 -6.95,5.41 -1.97,2.4 -2.96,5.09 -2.96,8.09 0,4.38 1.54,7.85 4.66,10.46 3.12,2.56 9.16,4.89 18.08,6.99 5.76,1.3 11.33,2.56 16.7,3.78 5.32,1.27 11.05,2.93 17.13,5.1 11.92,4.3 20.8,10.1 26.6,17.4 5.8,7.27 8.72,16.9 8.72,28.82 0,17.13 -6.71,30.86 -20.17,41.28 -13.42,10.39 -31.57,15.6 -54.47,15.6z"/>
   <path id="_12" class="fil6" d="M3803.6 332.13l58.22 -172.17 47.21 0 58.22 172.17 -44.48 0 -10.7 -34.82 -54.55 0 -10.66 34.82 -43.26 0zm98.92 -66.31l-17.72 -57.12 -17.73 57.12 35.45 0z"/>
   <path id="_13" class="fil6" d="M1765.64 607.37c-13.14,0 -24.71,-1.27 -34.69,-3.83 -9.99,-2.53 -19.23,-5.69 -27.79,-9.48l0 -40.93 3.91 0c8.64,7.3 18.11,12.91 28.49,16.86 10.39,3.9 20.45,5.88 30.24,5.88 2.45,0 5.68,-0.28 9.71,-0.79 4.07,-0.55 7.3,-1.38 9.75,-2.57 3,-1.3 5.56,-3.12 7.62,-5.44 2.09,-2.37 3.12,-5.45 3.12,-9.28 0,-4.3 -1.7,-7.82 -5.1,-10.54 -3.35,-2.68 -7.42,-4.66 -12.11,-5.88 -5.85,-1.54 -12.08,-3 -18.75,-4.38 -6.67,-1.38 -12.87,-3.08 -18.63,-5.09 -13.34,-4.7 -22.86,-11.02 -28.66,-18.95 -5.76,-7.93 -8.64,-17.88 -8.64,-29.84 0,-16.1 6.82,-29.13 20.44,-39.12 13.66,-9.98 30.67,-14.96 51.08,-14.96 10.26,0 20.44,1.03 30.59,3.12 10.1,2.09 19.18,4.9 27.19,8.45l0 39.35 -3.78 0c-6.4,-5.45 -14.17,-10.02 -23.37,-13.77 -9.2,-3.75 -18.63,-5.65 -28.34,-5.65 -3.75,0 -7.15,0.28 -10.15,0.79 -3,0.55 -6.15,1.58 -9.47,3.12 -2.68,1.18 -5.01,3 -6.95,5.41 -1.97,2.4 -2.96,5.09 -2.96,8.09 0,4.38 1.54,7.85 4.66,10.46 3.12,2.56 9.16,4.89 18.08,6.99 5.76,1.3 11.33,2.56 16.7,3.78 5.32,1.27 11.05,2.93 17.13,5.1 11.92,4.3 20.8,10.1 26.6,17.4 5.8,7.27 8.72,16.9 8.72,28.82 0,17.13 -6.71,30.86 -20.17,41.28 -13.42,10.39 -31.57,15.6 -54.47,15.6z"/>
   <polygon id="_14" class="fil6" points="1866.26,604.3 1866.26,432.12 1982.78,432.12 1982.78,465.04 1909.36,465.04 1909.36,495.12 1977.09,495.12 1977.09,528.04 1909.36,528.04 1909.36,571.38 1982.78,571.38 1982.78,604.3 "/>
   <polygon id="_15" class="fil6" points="2163.6,604.3 2121.96,604.3 2055.37,484.26 2055.37,604.3 2015.82,604.3 2015.82,432.12 2068.95,432.12 2124.05,530.76 2124.05,432.12 2163.6,432.12 "/>
   <polygon id="_16" class="fil6" points="2347.58,604.3 2304.24,604.3 2304.24,528.04 2245.51,528.04 2245.51,604.3 2202.17,604.3 2202.17,432.12 2245.51,432.12 2245.51,495.12 2304.24,495.12 2304.24,432.12 2347.58,432.12 "/>
   <path id="_17" class="fil6" d="M2543.8 518.25c0,27.83 -7.42,49.73 -22.31,65.68 -14.88,15.95 -35.24,23.92 -61.1,23.92 -25.97,0 -46.34,-8.09 -61.14,-24.24 -14.8,-16.14 -22.18,-37.93 -22.18,-65.36 0,-27.63 7.38,-49.5 22.18,-65.56 14.8,-16.07 35.17,-24.12 61.14,-24.12 25.86,0 46.22,8.01 61.1,24 14.89,15.98 22.31,37.89 22.31,65.68zm-44.53 -0.12c0,-10.22 -1.06,-18.99 -3.2,-26.17 -2.09,-7.22 -4.93,-13.14 -8.48,-17.76 -3.71,-4.7 -7.9,-8.09 -12.55,-10.11 -4.7,-2.05 -9.52,-3.07 -14.53,-3.07 -5.33,0 -10.18,0.94 -14.49,2.84 -4.34,1.89 -8.48,5.25 -12.51,10.1 -3.55,4.46 -6.43,10.42 -8.6,17.8 -2.21,7.42 -3.32,16.27 -3.32,26.49 0,10.58 1.03,19.34 3.12,26.33 2.09,6.98 4.93,12.83 8.57,17.52 3.71,4.78 7.93,8.21 12.63,10.23 4.69,2.05 9.55,3.07 14.6,3.07 5.09,0 10.03,-1.1 14.8,-3.31 4.78,-2.17 8.92,-5.61 12.4,-10.22 3.71,-5.02 6.55,-10.86 8.56,-17.53 2.02,-6.67 3,-15.39 3,-26.21z"/>
   <path id="_18" class="fil6" d="M2732.39 604.3l-52.81 0 -47.92 -63.24 -15.31 0 0 63.24 -43.11 0 0 -172.17 69.28 0c9.55,0 17.88,0.59 24.98,1.78 7.11,1.22 13.66,3.71 19.66,7.46 6.16,3.95 11.05,8.92 14.68,14.96 3.63,6.04 5.45,13.73 5.45,23.05 0,13.18 -2.96,23.84 -8.92,32.05 -5.96,8.21 -13.89,14.72 -23.88,19.58l57.9 73.3zm-69.62 -119.6c0,-4.34 -0.83,-8.05 -2.49,-11.17 -1.66,-3.12 -4.38,-5.57 -8.21,-7.26 -2.68,-1.15 -5.68,-1.86 -9,-2.18 -3.32,-0.31 -7.42,-0.47 -12.32,-0.47l-14.4 0 0 46.42 12.31 0c6,0 11.09,-0.36 15.28,-1.11 4.18,-0.71 7.73,-2.29 10.66,-4.69 2.76,-2.13 4.81,-4.74 6.15,-7.74 1.35,-3 2.02,-6.95 2.02,-11.8z"/>
   <path id="_19" class="fil6" d="M2730.58 604.3l58.22 -172.17 47.21 0 58.22 172.17 -44.48 0 -10.7 -34.82 -54.55 0 -10.66 34.82 -43.26 0zm98.92 -66.31l-17.72 -57.12 -17.73 57.12 35.45 0z"/>
   <path id="_20" class="fil6" d="M3161.18 518.37c0,16.06 -3.51,30.39 -10.5,43.1 -7.02,12.67 -15.9,22.38 -26.6,29.17 -8.92,5.8 -18.67,9.51 -29.17,11.17 -10.54,1.66 -21.71,2.49 -33.59,2.49l-53.84 0 0 -172.17 53.4 0c12.08,0 23.41,0.79 33.95,2.33 10.58,1.54 20.49,5.25 29.72,11.21 11.33,7.22 20.25,17.01 26.8,29.29 6.56,12.31 9.83,26.8 9.83,43.42zm-44.52 -0.4c0,-11.29 -1.94,-20.96 -5.8,-29.01 -3.87,-8.05 -9.87,-14.33 -17.92,-18.87 -5.81,-3.23 -11.96,-5.01 -18.36,-5.29 -6.39,-0.31 -14.05,-0.47 -22.97,-0.47l-0.79 0 0 107.52 0.79 0c9.67,0 17.84,-0.16 24.47,-0.51 6.63,-0.36 12.95,-2.41 18.95,-6.2 7.06,-4.46 12.43,-10.58 16.1,-18.43 3.67,-7.86 5.53,-17.41 5.53,-28.74z"/>
   <polygon id="_21" class="fil6" points="3190.71,604.3 3190.71,432.12 3307.23,432.12 3307.23,465.04 3233.81,465.04 3233.81,495.12 3301.55,495.12 3301.55,528.04 3233.81,528.04 3233.81,571.38 3307.23,571.38 3307.23,604.3 "/>
   <polygon id="_22" class="fil6" points="3548.05,465.04 3475.83,465.04 3475.83,497.49 3542.37,497.49 3542.37,530.41 3475.83,530.41 3475.83,604.3 3432.72,604.3 3432.72,432.12 3548.05,432.12 "/>
   <path id="_23" class="fil6" d="M3555.72 604.3l58.22 -172.17 47.21 0 58.22 172.17 -44.48 0 -10.7 -34.82 -54.55 0 -10.66 34.82 -43.26 0zm98.92 -66.31l-17.72 -57.12 -17.73 57.12 35.45 0zm19.02 -170.51l-34.73 45.47 -27.55 0 23.96 -45.47 38.32 0z"/>
   <polygon id="_24" class="fil6" points="3773.33,604.3 3773.33,465.04 3722.41,465.04 3722.41,432.12 3867.58,432.12 3867.58,465.04 3816.67,465.04 3816.67,604.3 "/>
   <polygon id="_25" class="fil6" points="3975.03,604.3 3881.96,604.3 3881.96,574.22 3906.83,574.22 3906.83,462.2 3881.96,462.2 3881.96,432.12 3975.03,432.12 3975.03,462.2 3950.17,462.2 3950.17,574.22 3975.03,574.22 "/>
   <polygon id="_26" class="fil6" points="4183.36,604.3 4140.26,604.3 4140.26,490.15 4108.92,563.8 4079.48,563.8 4048.14,490.15 4048.14,604.3 4007.4,604.3 4007.4,432.12 4057.26,432.12 4095.43,517.1 4133.43,432.12 4183.36,432.12 "/>
   <path id="_27" class="fil6" d="M4204.29 604.3l58.22 -172.17 47.21 0 58.22 172.17 -44.48 0 -10.7 -34.82 -54.55 0 -10.66 34.82 -43.26 0zm98.92 -66.31l-17.72 -57.12 -17.73 57.12 35.45 0z"/>
   <path class="fil6" d="M1706.11 815.79l38.87 -115.18 18.9 0 38.87 115.18 -16.21 0 -10.41 -32 -44.09 0 -10.37 32 -15.56 0zm65.7 -45.31l-17.75 -54.08 -17.69 54.08 35.43 0z"/>
   <path id="_1_0" class="fil6" d="M1905.59 815.79l-19.88 0 -36.47 -45.78 -17.47 0 0 45.78 -15.37 0 0 -115.18 29.71 0c6.6,0 12.12,0.37 16.59,1.08 4.46,0.72 8.71,2.4 12.72,5.02 4.02,2.59 7.21,5.91 9.56,9.98 2.35,4.09 3.52,9.13 3.52,15.19 0,8.45 -2.14,15.52 -6.42,21.17 -4.28,5.68 -10.11,9.88 -17.48,12.62l41.01 50.11zm-33.11 -82.69c0,-3.36 -0.58,-6.31 -1.77,-8.9 -1.19,-2.59 -3.01,-4.7 -5.5,-6.34 -2.16,-1.45 -4.7,-2.46 -7.57,-3.04 -2.88,-0.6 -6.47,-0.9 -10.75,-0.9l-15.13 0 0 43.25 13.44 0c4.38,0 8.32,-0.4 11.83,-1.16 3.48,-0.76 6.5,-2.35 8.95,-4.75 2.22,-2.16 3.86,-4.73 4.91,-7.71 1.06,-2.98 1.59,-6.47 1.59,-10.45z"/>
   <path id="_2_1" class="fil6" d="M2013.18 843.88c-2.8,0.74 -5.71,1.27 -8.79,1.64 -3.07,0.35 -6.13,0.53 -9.17,0.53 -8.63,0 -15.63,-2.4 -21.01,-7.23 -5.42,-4.84 -8.35,-11.73 -8.87,-20.65 -0.66,0 -1.29,0 -1.93,0 -0.6,0 -1.13,0 -1.58,0 -7.82,0 -14.84,-1.32 -21.12,-3.98 -6.29,-2.64 -11.65,-6.55 -16.08,-11.65 -4.43,-5.1 -7.84,-11.41 -10.22,-18.88 -2.38,-7.47 -3.56,-15.95 -3.56,-25.37 0,-9.69 1.19,-18.22 3.59,-25.53 2.4,-7.31 5.83,-13.63 10.27,-18.88 4.43,-5.12 9.8,-9 16.08,-11.64 6.29,-2.67 13.28,-3.99 21.05,-3.99 7.84,0 14.91,1.37 21.2,4.09 6.31,2.74 11.65,6.57 15.97,11.53 4.39,5.04 7.79,11.33 10.22,18.8 2.43,7.47 3.64,16.03 3.64,25.61 0,14.89 -2.93,27.2 -8.77,36.91 -5.83,9.69 -13.84,16.27 -24.03,19.72 0.27,2.88 0.76,5.47 1.51,7.77 0.76,2.27 1.71,4.09 2.9,5.44 1.4,1.59 3.09,2.75 5.1,3.51 1.98,0.74 4.7,1.11 8.18,1.11 2.06,0 4.49,-0.31 7.29,-0.95 2.77,-0.66 4.81,-1.24 6.05,-1.74l2.09 0 0 13.83zm-16.32 -85.68c0,-7.61 -0.82,-14.34 -2.48,-20.2 -1.64,-5.87 -3.96,-10.73 -6.94,-14.58 -3.07,-3.96 -6.74,-6.94 -11.04,-8.92 -4.31,-1.98 -9.14,-2.96 -14.49,-2.96 -5.57,0 -10.46,0.98 -14.61,2.91 -4.14,1.92 -7.81,4.91 -11.04,8.97 -3.03,3.91 -5.36,8.82 -7,14.73 -1.61,5.92 -2.43,12.6 -2.43,20.04 0,15.05 3.17,26.61 9.5,34.62 6.36,8.02 14.87,12.04 25.57,12.04 10.67,0 19.17,-4.02 25.48,-12.04 6.31,-8 9.48,-19.57 9.48,-34.62z"/>
   <path id="_3_2" class="fil6" d="M2072.55 818.17c-6.76,0 -12.68,-0.9 -17.75,-2.67 -5.04,-1.77 -9.34,-4.43 -12.91,-7.92 -4.02,-4.04 -6.86,-8.85 -8.5,-14.44 -1.67,-5.57 -2.48,-12.49 -2.48,-20.67l0 -71.85 15.36 0 0 71.69c0,5.28 0.35,9.74 1.01,13.39 0.66,3.62 1.98,6.86 3.93,9.74 2.06,3.09 4.86,5.44 8.4,7.02 3.52,1.61 7.82,2.4 12.94,2.4 4.78,0 9.03,-0.79 12.73,-2.4 3.72,-1.59 6.6,-3.94 8.66,-7.02 1.9,-2.93 3.19,-6.15 3.9,-9.72 0.69,-3.54 1.04,-7.9 1.04,-13.05l0 -72.06 15.36 0 0 71.85c0,8 -0.82,14.83 -2.43,20.57 -1.64,5.73 -4.49,10.56 -8.55,14.55 -3.67,3.54 -7.92,6.21 -12.81,7.94 -4.88,1.77 -10.85,2.64 -17.9,2.64z"/>
   <polygon id="_4_3" class="fil6" points="2179.24,815.79 2134.41,815.79 2134.41,804.07 2149.14,804.07 2149.14,712.34 2134.41,712.34 2134.41,700.62 2179.24,700.62 2179.24,712.34 2164.51,712.34 2164.51,804.07 2179.24,804.07 "/>
   <path id="_5_4" class="fil6" d="M2291.48 758.31c0,10.53 -2.11,20.02 -6.36,28.47 -4.25,8.48 -9.96,15.08 -17.11,19.8 -5.81,3.67 -11.73,6.13 -17.72,7.37 -5.99,1.24 -13.63,1.85 -22.94,1.85l-26.49 0 0 -115.18 26.17 0c10.8,0 19.27,0.82 25.43,2.43 6.15,1.64 11.38,3.86 15.71,6.71 7.42,4.88 13.15,11.4 17.22,19.51 4.07,8.13 6.1,17.82 6.1,29.04zm-16 -0.21c0,-8.85 -1.45,-16.39 -4.38,-22.62 -2.93,-6.26 -7.26,-11.12 -13.01,-14.6 -4.04,-2.48 -8.38,-4.25 -12.99,-5.34 -4.62,-1.08 -10.37,-1.61 -17.24,-1.61l-11.61 0 0 88.56 11.61 0c6.79,0 12.7,-0.52 17.77,-1.61 5.1,-1.08 9.72,-3.09 13.94,-6.02 5.28,-3.59 9.25,-8.4 11.91,-14.36 2.67,-5.99 4.01,-13.47 4.01,-22.39z"/>
   <polygon id="_6_5" class="fil6" points="2351.3,815.79 2306.47,815.79 2306.47,804.07 2321.21,804.07 2321.21,712.34 2306.47,712.34 2306.47,700.62 2351.3,700.62 2351.3,712.34 2336.57,712.34 2336.57,804.07 2351.3,804.07 "/>
   <path id="_7_6" class="fil6" d="M2454.43 713.87c4.39,5.04 7.79,11.3 10.22,18.78 2.43,7.47 3.64,16 3.64,25.58 0,9.35 -1.19,17.77 -3.56,25.3 -2.38,7.52 -5.81,13.83 -10.3,18.95 -4.7,5.36 -10.19,9.3 -16.47,11.85 -6.26,2.56 -13.18,3.83 -20.7,3.83 -7.82,0 -14.84,-1.32 -21.07,-3.93 -6.26,-2.64 -11.65,-6.55 -16.13,-11.75 -4.43,-5.12 -7.84,-11.41 -10.22,-18.88 -2.38,-7.47 -3.56,-15.92 -3.56,-25.37 0,-9.69 1.19,-18.19 3.59,-25.51 2.4,-7.31 5.83,-13.6 10.27,-18.86 4.43,-5.12 9.8,-9 16.08,-11.64 6.29,-2.67 13.28,-3.99 21.05,-3.99 7.84,0 14.91,1.37 21.2,4.09 6.31,2.74 11.65,6.57 15.97,11.53zm-2.14 44.36c0,-7.61 -0.82,-14.34 -2.48,-20.2 -1.64,-5.89 -3.96,-10.75 -6.94,-14.61 -3.07,-3.96 -6.74,-6.92 -11.04,-8.89 -4.31,-1.98 -9.14,-2.99 -14.49,-2.99 -5.57,0 -10.46,0.98 -14.61,2.91 -4.14,1.92 -7.81,4.91 -11.04,8.97 -3.03,3.91 -5.36,8.82 -7,14.73 -1.61,5.95 -2.43,12.62 -2.43,20.07 0,15.08 3.17,26.61 9.5,34.62 6.36,8 14.87,12.01 25.57,12.01 10.67,0 19.17,-4.02 25.48,-12.01 6.31,-8 9.48,-19.54 9.48,-34.62z"/>
   <path id="_8_7" class="fil6" d="M2532.74 817.85c-7.53,0 -14.47,-1.27 -20.78,-3.78 -6.31,-2.54 -11.77,-6.31 -16.37,-11.3 -4.59,-4.99 -8.16,-11.25 -10.67,-18.72 -2.54,-7.47 -3.8,-16.05 -3.8,-25.74 0,-9.64 1.21,-18.03 3.67,-25.19 2.46,-7.16 6.02,-13.42 10.72,-18.72 4.6,-5.15 10.03,-9.09 16.35,-11.78 6.29,-2.71 13.33,-4.06 21.12,-4.06 3.86,0 7.5,0.29 10.88,0.84 3.38,0.58 6.5,1.29 9.4,2.16 2.46,0.77 5.02,1.75 7.61,2.91 2.61,1.16 5.18,2.43 7.71,3.83l0 18.46 -1.24 0c-1.35,-1.21 -3.07,-2.69 -5.18,-4.41 -2.11,-1.71 -4.7,-3.4 -7.74,-5.1 -2.93,-1.55 -6.13,-2.85 -9.58,-3.85 -3.46,-1.04 -7.45,-1.53 -11.99,-1.53 -4.88,0 -9.53,1 -13.92,3.01 -4.38,2.01 -8.24,4.96 -11.51,8.85 -3.25,3.91 -5.79,8.82 -7.58,14.73 -1.83,5.89 -2.72,12.54 -2.72,19.94 0,7.87 0.95,14.63 2.85,20.3 1.92,5.68 4.51,10.46 7.81,14.37 3.2,3.8 6.98,6.68 11.3,8.61 4.33,1.92 8.93,2.87 13.76,2.87 4.43,0 8.53,-0.52 12.3,-1.61 3.75,-1.08 7.1,-2.46 10.03,-4.09 2.85,-1.61 5.28,-3.25 7.37,-4.91 2.06,-1.67 3.67,-3.09 4.86,-4.27l1.16 0 0 18.27c-2.54,1.19 -4.91,2.32 -7.15,3.43 -2.24,1.08 -4.96,2.14 -8.16,3.17 -3.35,1.08 -6.46,1.9 -9.34,2.48 -2.85,0.56 -6.58,0.85 -11.17,0.85z"/>
   <polygon id="_9_8" class="fil6" points="2585.7,815.79 2585.7,700.62 2657.79,700.62 2657.79,714.24 2601.07,714.24 2601.07,745.77 2653.98,745.77 2653.98,759.39 2601.07,759.39 2601.07,802.17 2657.79,802.17 2657.79,815.79 "/>
   <path id="_10_9" class="fil6" d="M2709.43 817.85c-8.35,0 -15.45,-0.88 -21.28,-2.59 -5.86,-1.75 -11.36,-3.88 -16.51,-6.39l0 -19.22 1.08 0c5.04,4.73 10.75,8.4 17.14,10.98 6.36,2.61 12.51,3.9 18.43,3.9 8.42,0 14.81,-1.77 19.14,-5.28 4.3,-3.54 6.47,-8.16 6.47,-13.92 0,-4.59 -1.13,-8.32 -3.38,-11.2 -2.27,-2.88 -5.86,-5.02 -10.77,-6.39 -3.56,-1.03 -6.81,-1.9 -9.74,-2.56 -2.93,-0.66 -6.62,-1.58 -11.06,-2.71 -3.96,-1.04 -7.53,-2.32 -10.67,-3.94 -3.15,-1.59 -5.91,-3.67 -8.34,-6.26 -2.38,-2.54 -4.23,-5.5 -5.52,-8.93 -1.32,-3.43 -1.98,-7.39 -1.98,-11.88 0,-9.32 3.64,-17.14 10.9,-23.45 7.29,-6.31 16.55,-9.48 27.85,-9.48 6.44,0 12.54,0.63 18.3,1.92 5.76,1.29 11.06,3.15 15.97,5.52l0 18.38 -1.16 0c-3.64,-3.36 -8.34,-6.29 -14.07,-8.77 -5.71,-2.51 -11.7,-3.75 -17.99,-3.75 -7.13,0 -12.86,1.67 -17.24,4.96 -4.38,3.33 -6.57,7.69 -6.57,13.09 0,4.86 1.29,8.74 3.86,11.65 2.56,2.87 6.28,4.96 11.14,6.31 3.25,0.87 7.24,1.87 11.91,2.98 4.7,1.11 8.58,2.11 11.67,3.07 7.95,2.4 13.76,6.07 17.4,10.96 3.67,4.91 5.5,10.93 5.5,18.09 0,4.49 -0.93,8.93 -2.75,13.31 -1.83,4.39 -4.39,8.11 -7.69,11.14 -3.7,3.35 -7.89,5.91 -12.57,7.74 -4.65,1.79 -10.48,2.69 -17.47,2.69z"/>
   <polygon id="_11_10" class="fil6" points="2768.37,815.79 2768.37,700.62 2840.46,700.62 2840.46,714.24 2783.75,714.24 2783.75,745.77 2836.66,745.77 2836.66,759.39 2783.75,759.39 2783.75,802.17 2840.46,802.17 2840.46,815.79 "/>
   <path id="_12_11" class="fil6" d="M3016.6 758.31c0,10.53 -2.11,20.02 -6.36,28.47 -4.25,8.48 -9.96,15.08 -17.11,19.8 -5.81,3.67 -11.73,6.13 -17.72,7.37 -5.99,1.24 -13.63,1.85 -22.94,1.85l-26.49 0 0 -115.18 26.17 0c10.8,0 19.27,0.82 25.43,2.43 6.15,1.64 11.38,3.86 15.71,6.71 7.42,4.88 13.15,11.4 17.22,19.51 4.07,8.13 6.1,17.82 6.1,29.04zm-16 -0.21c0,-8.85 -1.45,-16.39 -4.38,-22.62 -2.93,-6.26 -7.26,-11.12 -13.01,-14.6 -4.04,-2.48 -8.38,-4.25 -12.99,-5.34 -4.62,-1.08 -10.37,-1.61 -17.24,-1.61l-11.61 0 0 88.56 11.61 0c6.79,0 12.7,-0.52 17.77,-1.61 5.1,-1.08 9.72,-3.09 13.94,-6.02 5.28,-3.59 9.25,-8.4 11.91,-14.36 2.67,-5.99 4.01,-13.47 4.01,-22.39z"/>
   <polygon id="_13_12" class="fil6" points="3036.18,815.79 3036.18,700.62 3108.27,700.62 3108.27,714.24 3051.55,714.24 3051.55,745.77 3104.47,745.77 3104.47,759.39 3051.55,759.39 3051.55,802.17 3108.27,802.17 3108.27,815.79 "/>
   <polygon id="_14_13" class="fil6" points="3220.72,815.79 3220.72,714.24 3182.07,714.24 3182.07,700.62 3274.74,700.62 3274.74,714.24 3236.09,714.24 3236.09,815.79 "/>
   <polygon id="_15_14" class="fil6" points="3289.07,815.79 3289.07,700.62 3361.16,700.62 3361.16,714.24 3304.44,714.24 3304.44,745.77 3357.36,745.77 3357.36,759.39 3304.44,759.39 3304.44,802.17 3361.16,802.17 3361.16,815.79 "/>
   <path id="_16_15" class="fil6" d="M3469.91 815.79l-19.88 0 -36.47 -45.78 -17.47 0 0 45.78 -15.37 0 0 -115.18 29.71 0c6.6,0 12.12,0.37 16.59,1.08 4.46,0.72 8.71,2.4 12.72,5.02 4.02,2.59 7.21,5.91 9.56,9.98 2.35,4.09 3.52,9.13 3.52,15.19 0,8.45 -2.14,15.52 -6.42,21.17 -4.28,5.68 -10.11,9.88 -17.48,12.62l41.01 50.11zm-33.11 -82.69c0,-3.36 -0.58,-6.31 -1.77,-8.9 -1.19,-2.59 -3.01,-4.7 -5.5,-6.34 -2.16,-1.45 -4.7,-2.46 -7.57,-3.04 -2.88,-0.6 -6.47,-0.9 -10.75,-0.9l-15.13 0 0 43.25 13.44 0c4.38,0 8.32,-0.4 11.83,-1.16 3.48,-0.76 6.5,-2.35 8.95,-4.75 2.22,-2.16 3.86,-4.73 4.91,-7.71 1.06,-2.98 1.59,-6.47 1.59,-10.45z"/>
   <polygon id="_17_16" class="fil6" points="3481.81,815.79 3481.81,700.62 3553.89,700.62 3553.89,714.24 3497.18,714.24 3497.18,745.77 3550.09,745.77 3550.09,759.39 3497.18,759.39 3497.18,802.17 3553.89,802.17 3553.89,815.79 "/>
   <path id="_18_17" class="fil6" d="M3605.54 817.85c-8.35,0 -15.45,-0.88 -21.28,-2.59 -5.86,-1.75 -11.36,-3.88 -16.51,-6.39l0 -19.22 1.08 0c5.04,4.73 10.75,8.4 17.14,10.98 6.36,2.61 12.51,3.9 18.43,3.9 8.42,0 14.81,-1.77 19.14,-5.28 4.3,-3.54 6.47,-8.16 6.47,-13.92 0,-4.59 -1.13,-8.32 -3.38,-11.2 -2.27,-2.88 -5.86,-5.02 -10.77,-6.39 -3.56,-1.03 -6.81,-1.9 -9.74,-2.56 -2.93,-0.66 -6.62,-1.58 -11.06,-2.71 -3.96,-1.04 -7.53,-2.32 -10.67,-3.94 -3.15,-1.59 -5.91,-3.67 -8.34,-6.26 -2.38,-2.54 -4.23,-5.5 -5.52,-8.93 -1.32,-3.43 -1.98,-7.39 -1.98,-11.88 0,-9.32 3.64,-17.14 10.9,-23.45 7.29,-6.31 16.55,-9.48 27.85,-9.48 6.44,0 12.54,0.63 18.3,1.92 5.76,1.29 11.06,3.15 15.97,5.52l0 18.38 -1.16 0c-3.64,-3.36 -8.34,-6.29 -14.07,-8.77 -5.71,-2.51 -11.7,-3.75 -17.99,-3.75 -7.13,0 -12.86,1.67 -17.24,4.96 -4.38,3.33 -6.57,7.69 -6.57,13.09 0,4.86 1.29,8.74 3.86,11.65 2.56,2.87 6.28,4.96 11.14,6.31 3.25,0.87 7.24,1.87 11.91,2.98 4.7,1.11 8.58,2.11 11.67,3.07 7.95,2.4 13.76,6.07 17.4,10.96 3.67,4.91 5.5,10.93 5.5,18.09 0,4.49 -0.93,8.93 -2.75,13.31 -1.83,4.39 -4.39,8.11 -7.69,11.14 -3.7,3.35 -7.89,5.91 -12.57,7.74 -4.65,1.79 -10.48,2.69 -17.47,2.69z"/>
   <polygon id="_19_18" class="fil6" points="3704.72,815.79 3659.89,815.79 3659.89,804.07 3674.62,804.07 3674.62,712.34 3659.89,712.34 3659.89,700.62 3704.72,700.62 3704.72,712.34 3689.99,712.34 3689.99,804.07 3704.72,804.07 "/>
   <polygon id="_20_19" class="fil6" points="3808.57,815.79 3791.46,815.79 3740.6,716.48 3740.6,815.79 3726.35,815.79 3726.35,700.62 3748.02,700.62 3794.31,791.82 3794.31,700.62 3808.57,700.62 "/>
   <path id="_21_20" class="fil6" d="M3822.34 815.79l38.87 -115.18 18.9 0 38.87 115.18 -16.21 0 -10.41 -32 -44.09 0 -10.37 32 -15.56 0zm65.7 -45.31l-17.75 -54.08 -17.69 54.08 35.43 0z"/>
   <line class="fil7 str0" x1="1446.08" y1="0" x2="1446.08" y2= "975.45" />
  </g>
 </g>
</svg>
