<?xml version="1.0" encoding="UTF-8"?>
<!DOCTYPE svg PUBLIC "-//W3C//DTD SVG 1.1//EN" "http://www.w3.org/Graphics/SVG/1.1/DTD/svg11.dtd">
<!-- Creator: CorelDRAW 2021.5 -->
<svg xmlns="http://www.w3.org/2000/svg" xml:space="preserve" width="6.2006mm" height="4.7507mm" version="1.1" style="shape-rendering:geometricPrecision; text-rendering:geometricPrecision; image-rendering:optimizeQuality; fill-rule:evenodd; clip-rule:evenodd"
viewBox="0 0 69.79 53.47"
 xmlns:xlink="http://www.w3.org/1999/xlink"
 xmlns:xodm="http://www.corel.com/coreldraw/odm/2003">
 <defs>
  <style type="text/css">
   <![CDATA[
    .fil2 {fill:#FEFEFE}
    .fil3 {fill:#373435}
    .fil1 {fill:#F58634}
    .fil0 {fill:#ED3237}
    .fil4 {fill:#282829}
    .fil5 {fill:#373435;fill-rule:nonzero}
   ]]>
  </style>
 </defs>
 <g id="Camada_x0020_1">
  <metadata id="CorelCorpID_0Corel-Layer"/>
  <polygon class="fil0" points="23.98,9.55 28.58,8.74 35.73,7 54.75,5.67 61.19,5.26 62.93,9.45 64.46,26.63 65.28,36.95 52.7,36.95 29.29,38.89 15.59,41.25 10.99,41.86 12.12,35.42 12.22,26.53 12.63,21.62 13.86,14.77 "/>
  <polygon class="fil1" points="18.87,40.63 40.74,37.56 51.89,37.26 48.92,27.24 44.73,14.87 38.9,20.49 31.85,27.54 23.77,30 "/>
  <path class="fil2" d="M17.13 0.86l7.46 7.97 6.85 9.1 2.35 2.35 3.07 0.31 3.07 1.94 3.68 2.15 -1.64 1.33 -5.52 2.15 -5.62 1.74 -4.6 0 -5.72 -2.35 -6.34 -4.9 -5.01 -4.09 -2.45 -2.86 0.2 -1.23 5.62 -4.29 2.66 0c0,0 0.82,-0.31 1.02,-1.23 0.2,-0.92 -0.61,-2.04 -0.61,-2.04l-0.1 -1.33 1.53 -0.1 -0.61 -3.07 -0.2 -1.23 0.92 -0.31z"/>
  <polygon class="fil2" points="40.64,3.21 44.83,15.07 45.75,17.63 44.37,18.71 43.3,20.7 42.2,23.76 38.08,21.62 34.2,20.08 31.44,17.94 30.62,16.81 36.14,8.33 39.31,3.52 "/>
  <path class="fil2" d="M45.37 17.27l0.29 -3.29 0.5 -2.15 0.57 -1.07 0.79 0.57c0,0 0.36,1.5 0.36,1.86 0,0.36 2.36,0.07 2.36,0.07l1.93 0.36 -0.86 1.14 -2.72 1.22 -2.22 1.22 -1 0.07z"/>
  <path class="fil3" d="M4.31 21.21c0,0 -0.05,-0.72 1.24,-0.72 1.29,0 5.33,0.19 5.33,0.19l2.57 2.29 -3.99 -0.19 -3.91 0.42c0,0 -1,0 -1.19,-0.76 -0.19,-0.76 -0.05,-1.24 -0.05,-1.24z"/>
  <path class="fil3" d="M0.75 13c-0.55,0.41 -0.86,1.55 -0.71,2.78 0.27,2.16 0.68,1.43 2.13,1.17 2.11,-0.38 5.46,0.72 5.23,0.3l-1 -1.81c0,0 -1.33,-0.29 -2.62,-1 -0.54,-0.3 -2.48,-1.85 -3.03,-1.44zm0.37 1.63l1.52 0.9 -1.29 0.62c0,0 -0.9,-1.29 -0.24,-1.53z"/>
  <path class="fil3" d="M11.82 24.89c0,0 0.72,-0.99 0.83,-0.17 0.11,0.83 0,9.44 0,9.44 0,0 -0.26,3.48 -0.59,4.63 -0.33,1.16 -1.01,4.19 -1.01,4.19 0,0 -0.66,1.49 -0.77,0.22 -0.11,-1.27 0.94,-3.97 0.99,-6.4 0.06,-2.43 0.39,-9.71 0.39,-9.71l0.17 -2.21z"/>
  <path class="fil3" d="M6.73 42.62c0,0 -0.19,1.12 0.87,0.87 1.06,-0.25 6.21,-1.43 9.32,-2.06 3.11,-0.62 20.01,-2.81 25.67,-3.12 5.66,-0.31 22,-0.55 23.37,-0.55 1.37,0 2.11,0.19 2.11,0.19l0 -1.18c0,0 -11.37,-0.44 -15.72,-0.31 -4.35,0.12 -16.22,1.31 -16.22,1.31 0,0 -17.15,1.81 -20.95,2.49 -3.79,0.69 -8.45,2.37 -8.45,2.37z"/>
  <path class="fil3" d="M27.16 7.58c0,0 -1.01,0.76 -0.61,1.26 0.41,0.5 0.15,0.5 3.59,-0.3 3.44,-0.81 12.73,-1.72 15.77,-1.82 3.03,-0.1 13.24,-0.86 13.24,-0.86 0,0 2.68,-0.61 2.88,2.93 0.2,3.54 2.53,25.12 2.53,25.12l0.4 4.9 0.96 0.15c0,0 -0.51,-8.84 -0.56,-12.03 -0.05,-3.18 -1.75,-18.14 -1.92,-19 -0.17,-0.86 -0.35,-3.39 -2.22,-3.39 -2.48,0 -15.61,0.81 -15.61,0.81 0,0 -8.34,0.81 -10.56,1.21 -2.62,0.48 -5.3,0.39 -7.88,1.01z"/>
  <path class="fil3" d="M45.66 19.4c-1.2,-4.96 -3.02,-10.06 -5,-15.22 -0.35,-0.92 -1.02,-0.24 -1.02,-0.24 -2.86,3.78 -5.01,7.61 -7.32,11.2 -0.89,1.38 -3.43,5.87 -3.84,6.51 -0.41,0.64 -2.71,5.05 -3.48,6.46 -0.77,1.41 -3.04,6.48 -3.76,7.95 -0.72,1.46 -2.76,6.66 -2.76,6.66 0,0 -2.51,5.92 -3.46,7.25 -0.95,1.33 -1.23,-0.62 -1.23,-0.62l1.39 -2.07c0,0 1.84,-3.83 2.3,-4.67 0.46,-0.84 3.6,-8.11 3.6,-8.11 0,0 5.51,-11.33 6.28,-12.94 0.76,-1.61 5.36,-8.8 5.36,-8.8 0,0 4.52,-6.81 5.97,-9.26 1.45,-2.45 2.45,-0.54 2.45,-0.54l2.3 6.05 5.51 16.92 4.44 14.54 2.37 7.73 -1.3 -0.54 -0.31 -1.15c0,0 -0.84,-2.37 -1.61,-4.98 -0.77,-2.6 -6.89,-22.16 -6.89,-22.16z"/>
  <path class="fil3" d="M18.03 0.34c-0.89,-0.94 -3.07,0.08 -2.49,2.43 0.4,0.68 1.88,2.57 -0.51,1.66 -1.13,-0.43 -0.66,2.08 -0.46,2.47 0.62,1.2 1.05,1.77 0.52,1.81 -0.04,0 -0.46,0.2 -0.94,0.28 -0.8,0.13 -1.39,0.55 -1.93,1 -1.73,1.46 -4.03,3.04 -5.46,4.78 -0.57,0.69 -0.98,1.29 -0.29,2l3.51 3.55c2.34,2.36 4.61,4.11 7.36,6.01 2.88,1.98 5.22,3.13 6.35,3.64 2.18,1 6.46,0.23 8.69,-0.09 1.73,-0.25 5.08,-1.21 6.93,-2.33 1.66,-1 3.51,-1.33 5.03,-1.88 0.79,-0.29 1.02,-0.89 0.16,-1.22l-3.76 -1.44c0,0 -2.71,-2.49 -3.22,-2.73 -3.09,-1.47 -2.98,1.01 -6.71,-4.09 -3.16,-4.33 -6.23,-8.49 -9.6,-12.6 -0.86,-1.04 -2.18,-2.18 -3.19,-3.24zm22.76 23.81l2.13 0.82c0,0 -1.13,0.36 -2.32,0.77 0.03,-0.48 0.13,-1.23 0.19,-1.6zm-23.87 -22.61c0.34,0 2.74,2.78 4.25,4.56 1.51,1.78 5.66,6.86 5.66,6.86l3.47 4.7c0.92,0.9 2.67,2.99 3.85,2.99 1.31,0 1.86,0.12 2.3,0.33 0.45,0.21 3,2.65 3,2.65l0.68 0.26c-0.12,0.71 -0.16,1.4 -0.12,2.06 -2.41,1.4 -5.21,2.68 -8.03,2.99 -1.96,0.22 -4.86,0.51 -7.24,0.1 -2.37,-0.4 -10.37,-7.25 -10.7,-7.55l-6.31 -5.63c0,0 -0.74,-0.5 -0.21,-0.96 1.73,-1.52 3.48,-2.99 5.21,-4.22 0,0 0.62,-0.38 1.06,0.14 0.45,0.51 3.05,3.36 3.05,3.36 0,0 0.48,0.34 0.07,0.76 -0.41,0.41 -0.99,1.43 -0.37,2.57 1.31,2.4 4.44,5.52 7.36,7.45 1.06,0.7 1.73,1.6 2.79,1.74 0,0 0.77,-0.81 0.22,-1.22 -0.56,-0.41 -4.53,-3.14 -6.04,-4.82 -1.51,-1.68 -3.1,-2.88 -3.1,-3.8 0,-0.93 0.17,-1.17 0.51,-1.44 0.34,-0.27 1.99,-0.27 0.21,-1.75 -1.78,-1.48 -2.37,-2.92 -2.37,-2.92 0,0 -0.38,-0.62 0.14,-0.65 0.51,-0.03 1.23,-0.34 0.96,-1.3 -0.27,-0.96 -1.41,-1.85 -1.3,-2.23 0.1,-0.38 0.07,-0.93 0.72,-0.69 0.65,0.24 1.16,0.41 1.16,-0.24 0,-0.65 -0.31,-2.02 -0.62,-2.54 -0.31,-0.51 -0.62,-1.58 -0.27,-1.58z"/>
  <path class="fil3" d="M14.43 45.69l0.31 -1.15c0,0 4.97,-0.99 10.72,-1.91 5.74,-0.92 9.95,-1.3 14.16,-1.91 4.21,-0.61 19.37,-1.46 19.37,-1.46l0.38 1.38c0,0 -3.98,0.23 -10.34,0.53 -6.35,0.31 -12.54,1.7 -16.84,1.91 -6.06,0.31 -11.66,1.94 -17.76,2.6z"/>
  <path class="fil3" d="M40.64 30.1c0,-2.56 1.33,-7.46 1.94,-9.1 0.61,-1.63 2.25,-3.27 2.25,-3.27 0,0 -0.14,-4.29 0.72,-6.64 0.59,-1.62 1.67,-1.02 2.29,-0.45 0.72,0.66 0.47,1.36 0.47,2.29 0,0 2.15,-0.41 3.68,-0.2 1.55,0.2 0.4,1.84 -0.31,2.23 -1.42,0.77 -2.93,1.42 -4.39,2.06 -3.48,1.53 -3.27,3.48 -4.19,5.21 -0.92,1.74 -1.23,7.87 -1.23,7.87l-1.22 0zm5.11 -13.09c0,0 2.76,-1.74 3.99,-2.04 1.23,-0.31 2.04,-1.43 0.61,-1.33 -1.43,0.1 -2.96,0.61 -2.96,0.61l0 -1.84c0,0 -0.61,-2.76 -1.23,0.41 -0.61,3.17 -0.41,4.19 -0.41,4.19z"/>
  <polygon class="fil4" points="36.55,10.07 36.55,11.29 38.39,11.29 38.39,17.53 39.51,17.53 39.51,11.29 41.06,11.29 41.06,10.07 39.51,10.07 39.51,7.99 38.39,7.99 38.39,10.07 "/>
  <path class="fil5" d="M36.96 10.47l0 0.42 1.43 0c0.22,0 0.4,0.18 0.4,0.4l0 0.01 0 5.82 0.32 0 0 -5.83c0,-0.22 0.18,-0.4 0.4,-0.4l0.01 0 1.13 0 0 -0.42 -1.14 0c-0.22,0 -0.4,-0.18 -0.4,-0.4l0 -0.01 0 -1.66 -0.32 0 0 1.68c0,0.22 -0.18,0.4 -0.4,0.4l-0.01 0 -1.42 0zm-0.81 0.82l0 -1.22 0 -0.01c0,-0.22 0.18,-0.4 0.4,-0.4l1.44 0 0 -1.66 0 -0.01c0,-0.22 0.18,-0.4 0.4,-0.4l1.11 0 0.01 0c0.22,0 0.4,0.18 0.4,0.4l0 1.67 1.13 0 0.01 0c0.22,0 0.4,0.18 0.4,0.4l0 1.22 0 0.01c0,0.22 -0.18,0.4 -0.4,0.4l-1.14 0 0 5.82 0 0.01c0,0.22 -0.18,0.4 -0.4,0.4l-1.11 0 -0.01 0c-0.22,0 -0.4,-0.18 -0.4,-0.4l0 -5.83 -1.43 0 -0.01 0c-0.22,0 -0.4,-0.18 -0.4,-0.4z"/>
  <polygon class="fil3" points="36.55,10.07 36.55,11.29 38.39,11.29 38.39,17.53 39.51,17.53 39.51,11.29 41.06,11.29 41.06,10.07 39.51,10.07 39.51,7.99 38.39,7.99 38.39,10.07 "/>
  <path class="fil4" d="M36.8 25.38c0.44,0.25 0.78,0.05 1.06,-0.23 0.38,-0.39 0.67,-1.09 0.05,-1.45 -0.28,-0.16 -0.62,-0.01 -0.96,0.35 -0.44,0.46 -0.61,1.06 -0.14,1.33z"/>
  <path class="fil3" d="M36.8 25.38c0.44,0.25 0.78,0.05 1.06,-0.23 0.38,-0.39 0.67,-1.09 0.05,-1.45 -0.28,-0.16 -0.62,-0.01 -0.96,0.35 -0.44,0.46 -0.61,1.06 -0.14,1.33z"/>
  <path class="fil3" d="M21.25 52.61l0.54 0.86c0,0 2.7,-1.19 6.15,-2.91 3.45,-1.73 10.46,-4.96 10.46,-4.96 0,0 5.39,-2.16 11.22,0.11 5.83,2.27 5.72,2.7 9.49,3.13 3.78,0.43 9.92,0 9.92,0l0.75 -1.51 -10.36 0.11c0,0 -4.85,-0.86 -7.12,-2.26 -2.27,-1.4 -9.28,-2.7 -12.83,-1.19 -3.56,1.51 -18.23,8.63 -18.23,8.63z"/>
 </g>
</svg>
